<?xml version="1.0" encoding="utf-8"?>
		<!DOCTYPE svg>
		<svg width="594px" height="340px" xmlns="http://www.w3.org/2000/svg">
			<rect width="100%" height="100%" fill="white" />
			<circle cx="35" cy="20" r="3" style="stroke:black;stroke-width:1;fill=black" /><line x1="35" y1="20" x2="35" y2="40" style="stroke:black;stroke-width:1" /><circle cx="35" cy="40" r="3" style="stroke:black;stroke-width:1;fill=black" /><circle cx="35" cy="60" r="3" style="stroke:black;stroke-width:1;fill=black" /><line x1="35" y1="60" x2="35" y2="80" style="stroke:black;stroke-width:1" /><circle cx="35" cy="80" r="3" style="stroke:black;stroke-width:1;fill=black" /><circle cx="35" cy="100" r="3" style="stroke:black;stroke-width:1;fill=black" /><line x1="35" y1="100" x2="35" y2="120" style="stroke:black;stroke-width:1" /><circle cx="35" cy="120" r="3" style="stroke:black;stroke-width:1;fill=black" /><circle cx="35" cy="140" r="3" style="stroke:black;stroke-width:1;fill=black" /><line x1="35" y1="140" x2="35" y2="160" style="stroke:black;stroke-width:1" /><circle cx="35" cy="160" r="3" style="stroke:black;stroke-width:1;fill=black" /><circle cx="35" cy="180" r="3" style="stroke:black;stroke-width:1;fill=black" /><line x1="35" y1="180" x2="35" y2="200" style="stroke:black;stroke-width:1" /><circle cx="35" cy="200" r="3" style="stroke:black;stroke-width:1;fill=black" /><circle cx="35" cy="220" r="3" style="stroke:black;stroke-width:1;fill=black" /><line x1="35" y1="220" x2="35" y2="240" style="stroke:black;stroke-width:1" /><circle cx="35" cy="240" r="3" style="stroke:black;stroke-width:1;fill=black" /><circle cx="35" cy="260" r="3" style="stroke:black;stroke-width:1;fill=black" /><line x1="35" y1="260" x2="35" y2="280" style="stroke:black;stroke-width:1" /><circle cx="35" cy="280" r="3" style="stroke:black;stroke-width:1;fill=black" /><circle cx="35" cy="300" r="3" style="stroke:black;stroke-width:1;fill=black" /><line x1="35" y1="300" x2="35" y2="320" style="stroke:black;stroke-width:1" /><circle cx="35" cy="320" r="3" style="stroke:black;stroke-width:1;fill=black" /><circle cx="70" cy="20" r="3" style="stroke:black;stroke-width:1;fill=black" /><line x1="70" y1="20" x2="70" y2="60" style="stroke:black;stroke-width:1" /><circle cx="70" cy="60" r="3" style="stroke:black;stroke-width:1;fill=black" /><circle cx="81" cy="40" r="3" style="stroke:black;stroke-width:1;fill=black" /><line x1="81" y1="40" x2="81" y2="80" style="stroke:black;stroke-width:1" /><circle cx="81" cy="80" r="3" style="stroke:black;stroke-width:1;fill=black" /><circle cx="70" cy="100" r="3" style="stroke:black;stroke-width:1;fill=black" /><line x1="70" y1="100" x2="70" y2="140" style="stroke:black;stroke-width:1" /><circle cx="70" cy="140" r="3" style="stroke:black;stroke-width:1;fill=black" /><circle cx="81" cy="120" r="3" style="stroke:black;stroke-width:1;fill=black" /><line x1="81" y1="120" x2="81" y2="160" style="stroke:black;stroke-width:1" /><circle cx="81" cy="160" r="3" style="stroke:black;stroke-width:1;fill=black" /><circle cx="70" cy="180" r="3" style="stroke:black;stroke-width:1;fill=black" /><line x1="70" y1="180" x2="70" y2="220" style="stroke:black;stroke-width:1" /><circle cx="70" cy="220" r="3" style="stroke:black;stroke-width:1;fill=black" /><circle cx="81" cy="200" r="3" style="stroke:black;stroke-width:1;fill=black" /><line x1="81" y1="200" x2="81" y2="240" style="stroke:black;stroke-width:1" /><circle cx="81" cy="240" r="3" style="stroke:black;stroke-width:1;fill=black" /><circle cx="70" cy="260" r="3" style="stroke:black;stroke-width:1;fill=black" /><line x1="70" y1="260" x2="70" y2="300" style="stroke:black;stroke-width:1" /><circle cx="70" cy="300" r="3" style="stroke:black;stroke-width:1;fill=black" /><circle cx="81" cy="280" r="3" style="stroke:black;stroke-width:1;fill=black" /><line x1="81" y1="280" x2="81" y2="320" style="stroke:black;stroke-width:1" /><circle cx="81" cy="320" r="3" style="stroke:black;stroke-width:1;fill=black" /><circle cx="116" cy="20" r="3" style="stroke:black;stroke-width:1;fill=black" /><line x1="116" y1="20" x2="116" y2="100" style="stroke:black;stroke-width:1" /><circle cx="116" cy="100" r="3" style="stroke:black;stroke-width:1;fill=black" /><circle cx="127" cy="40" r="3" style="stroke:black;stroke-width:1;fill=black" /><line x1="127" y1="40" x2="127" y2="120" style="stroke:black;stroke-width:1" /><circle cx="127" cy="120" r="3" style="stroke:black;stroke-width:1;fill=black" /><circle cx="138" cy="60" r="3" style="stroke:black;stroke-width:1;fill=black" /><line x1="138" y1="60" x2="138" y2="140" style="stroke:black;stroke-width:1" /><circle cx="138" cy="140" r="3" style="stroke:black;stroke-width:1;fill=black" /><circle cx="149" cy="80" r="3" style="stroke:black;stroke-width:1;fill=black" /><line x1="149" y1="80" x2="149" y2="160" style="stroke:black;stroke-width:1" /><circle cx="149" cy="160" r="3" style="stroke:black;stroke-width:1;fill=black" /><circle cx="116" cy="180" r="3" style="stroke:black;stroke-width:1;fill=black" /><line x1="116" y1="180" x2="116" y2="260" style="stroke:black;stroke-width:1" /><circle cx="116" cy="260" r="3" style="stroke:black;stroke-width:1;fill=black" /><circle cx="127" cy="200" r="3" style="stroke:black;stroke-width:1;fill=black" /><line x1="127" y1="200" x2="127" y2="280" style="stroke:black;stroke-width:1" /><circle cx="127" cy="280" r="3" style="stroke:black;stroke-width:1;fill=black" /><circle cx="138" cy="220" r="3" style="stroke:black;stroke-width:1;fill=black" /><line x1="138" y1="220" x2="138" y2="300" style="stroke:black;stroke-width:1" /><circle cx="138" cy="300" r="3" style="stroke:black;stroke-width:1;fill=black" /><circle cx="149" cy="240" r="3" style="stroke:black;stroke-width:1;fill=black" /><line x1="149" y1="240" x2="149" y2="320" style="stroke:black;stroke-width:1" /><circle cx="149" cy="320" r="3" style="stroke:black;stroke-width:1;fill=black" /><circle cx="184" cy="20" r="3" style="stroke:black;stroke-width:1;fill=black" /><line x1="184" y1="20" x2="184" y2="180" style="stroke:black;stroke-width:1" /><circle cx="184" cy="180" r="3" style="stroke:black;stroke-width:1;fill=black" /><circle cx="195" cy="40" r="3" style="stroke:black;stroke-width:1;fill=black" /><line x1="195" y1="40" x2="195" y2="200" style="stroke:black;stroke-width:1" /><circle cx="195" cy="200" r="3" style="stroke:black;stroke-width:1;fill=black" /><circle cx="206" cy="60" r="3" style="stroke:black;stroke-width:1;fill=black" /><line x1="206" y1="60" x2="206" y2="220" style="stroke:black;stroke-width:1" /><circle cx="206" cy="220" r="3" style="stroke:black;stroke-width:1;fill=black" /><circle cx="217" cy="80" r="3" style="stroke:black;stroke-width:1;fill=black" /><line x1="217" y1="80" x2="217" y2="240" style="stroke:black;stroke-width:1" /><circle cx="217" cy="240" r="3" style="stroke:black;stroke-width:1;fill=black" /><circle cx="228" cy="100" r="3" style="stroke:black;stroke-width:1;fill=black" /><line x1="228" y1="100" x2="228" y2="260" style="stroke:black;stroke-width:1" /><circle cx="228" cy="260" r="3" style="stroke:black;stroke-width:1;fill=black" /><circle cx="239" cy="120" r="3" style="stroke:black;stroke-width:1;fill=black" /><line x1="239" y1="120" x2="239" y2="280" style="stroke:black;stroke-width:1" /><circle cx="239" cy="280" r="3" style="stroke:black;stroke-width:1;fill=black" /><circle cx="250" cy="140" r="3" style="stroke:black;stroke-width:1;fill=black" /><line x1="250" y1="140" x2="250" y2="300" style="stroke:black;stroke-width:1" /><circle cx="250" cy="300" r="3" style="stroke:black;stroke-width:1;fill=black" /><circle cx="261" cy="160" r="3" style="stroke:black;stroke-width:1;fill=black" /><line x1="261" y1="160" x2="261" y2="320" style="stroke:black;stroke-width:1" /><circle cx="261" cy="320" r="3" style="stroke:black;stroke-width:1;fill=black" /><circle cx="296" cy="120" r="3" style="stroke:black;stroke-width:1;fill=black" /><line x1="296" y1="120" x2="296" y2="220" style="stroke:black;stroke-width:1" /><circle cx="296" cy="220" r="3" style="stroke:black;stroke-width:1;fill=black" /><circle cx="307" cy="140" r="3" style="stroke:black;stroke-width:1;fill=black" /><line x1="307" y1="140" x2="307" y2="200" style="stroke:black;stroke-width:1" /><circle cx="307" cy="200" r="3" style="stroke:black;stroke-width:1;fill=black" /><circle cx="318" cy="80" r="3" style="stroke:black;stroke-width:1;fill=black" /><line x1="318" y1="80" x2="318" y2="260" style="stroke:black;stroke-width:1" /><circle cx="318" cy="260" r="3" style="stroke:black;stroke-width:1;fill=black" /><circle cx="296" cy="280" r="3" style="stroke:black;stroke-width:1;fill=black" /><line x1="296" y1="280" x2="296" y2="300" style="stroke:black;stroke-width:1" /><circle cx="296" cy="300" r="3" style="stroke:black;stroke-width:1;fill=black" /><circle cx="329" cy="160" r="3" style="stroke:black;stroke-width:1;fill=black" /><line x1="329" y1="160" x2="329" y2="240" style="stroke:black;stroke-width:1" /><circle cx="329" cy="240" r="3" style="stroke:black;stroke-width:1;fill=black" /><circle cx="296" cy="40" r="3" style="stroke:black;stroke-width:1;fill=black" /><line x1="296" y1="40" x2="296" y2="60" style="stroke:black;stroke-width:1" /><circle cx="296" cy="60" r="3" style="stroke:black;stroke-width:1;fill=black" /><circle cx="340" cy="100" r="3" style="stroke:black;stroke-width:1;fill=black" /><line x1="340" y1="100" x2="340" y2="180" style="stroke:black;stroke-width:1" /><circle cx="340" cy="180" r="3" style="stroke:black;stroke-width:1;fill=black" /><circle cx="375" cy="40" r="3" style="stroke:black;stroke-width:1;fill=black" /><line x1="375" y1="40" x2="375" y2="100" style="stroke:black;stroke-width:1" /><circle cx="375" cy="100" r="3" style="stroke:black;stroke-width:1;fill=black" /><circle cx="375" cy="160" r="3" style="stroke:black;stroke-width:1;fill=black" /><line x1="375" y1="160" x2="375" y2="280" style="stroke:black;stroke-width:1" /><circle cx="375" cy="280" r="3" style="stroke:black;stroke-width:1;fill=black" /><circle cx="386" cy="60" r="3" style="stroke:black;stroke-width:1;fill=black" /><line x1="386" y1="60" x2="386" y2="180" style="stroke:black;stroke-width:1" /><circle cx="386" cy="180" r="3" style="stroke:black;stroke-width:1;fill=black" /><circle cx="386" cy="240" r="3" style="stroke:black;stroke-width:1;fill=black" /><line x1="386" y1="240" x2="386" y2="300" style="stroke:black;stroke-width:1" /><circle cx="386" cy="300" r="3" style="stroke:black;stroke-width:1;fill=black" /><circle cx="421" cy="60" r="3" style="stroke:black;stroke-width:1;fill=black" /><line x1="421" y1="60" x2="421" y2="100" style="stroke:black;stroke-width:1" /><circle cx="421" cy="100" r="3" style="stroke:black;stroke-width:1;fill=black" /><circle cx="421" cy="120" r="3" style="stroke:black;stroke-width:1;fill=black" /><line x1="421" y1="120" x2="421" y2="140" style="stroke:black;stroke-width:1" /><circle cx="421" cy="140" r="3" style="stroke:black;stroke-width:1;fill=black" /><circle cx="421" cy="200" r="3" style="stroke:black;stroke-width:1;fill=black" /><line x1="421" y1="200" x2="421" y2="220" style="stroke:black;stroke-width:1" /><circle cx="421" cy="220" r="3" style="stroke:black;stroke-width:1;fill=black" /><circle cx="421" cy="240" r="3" style="stroke:black;stroke-width:1;fill=black" /><line x1="421" y1="240" x2="421" y2="280" style="stroke:black;stroke-width:1" /><circle cx="421" cy="280" r="3" style="stroke:black;stroke-width:1;fill=black" /><circle cx="432" cy="80" r="3" style="stroke:black;stroke-width:1;fill=black" /><line x1="432" y1="80" x2="432" y2="180" style="stroke:black;stroke-width:1" /><circle cx="432" cy="180" r="3" style="stroke:black;stroke-width:1;fill=black" /><circle cx="443" cy="160" r="3" style="stroke:black;stroke-width:1;fill=black" /><line x1="443" y1="160" x2="443" y2="260" style="stroke:black;stroke-width:1" /><circle cx="443" cy="260" r="3" style="stroke:black;stroke-width:1;fill=black" /><circle cx="478" cy="140" r="3" style="stroke:black;stroke-width:1;fill=black" /><line x1="478" y1="140" x2="478" y2="180" style="stroke:black;stroke-width:1" /><circle cx="478" cy="180" r="3" style="stroke:black;stroke-width:1;fill=black" /><circle cx="478" cy="220" r="3" style="stroke:black;stroke-width:1;fill=black" /><line x1="478" y1="220" x2="478" y2="260" style="stroke:black;stroke-width:1" /><circle cx="478" cy="260" r="3" style="stroke:black;stroke-width:1;fill=black" /><circle cx="478" cy="80" r="3" style="stroke:black;stroke-width:1;fill=black" /><line x1="478" y1="80" x2="478" y2="120" style="stroke:black;stroke-width:1" /><circle cx="478" cy="120" r="3" style="stroke:black;stroke-width:1;fill=black" /><circle cx="489" cy="160" r="3" style="stroke:black;stroke-width:1;fill=black" /><line x1="489" y1="160" x2="489" y2="200" style="stroke:black;stroke-width:1" /><circle cx="489" cy="200" r="3" style="stroke:black;stroke-width:1;fill=black" /><circle cx="524" cy="80" r="3" style="stroke:black;stroke-width:1;fill=black" /><line x1="524" y1="80" x2="524" y2="100" style="stroke:black;stroke-width:1" /><circle cx="524" cy="100" r="3" style="stroke:black;stroke-width:1;fill=black" /><circle cx="524" cy="120" r="3" style="stroke:black;stroke-width:1;fill=black" /><line x1="524" y1="120" x2="524" y2="140" style="stroke:black;stroke-width:1" /><circle cx="524" cy="140" r="3" style="stroke:black;stroke-width:1;fill=black" /><circle cx="524" cy="160" r="3" style="stroke:black;stroke-width:1;fill=black" /><line x1="524" y1="160" x2="524" y2="180" style="stroke:black;stroke-width:1" /><circle cx="524" cy="180" r="3" style="stroke:black;stroke-width:1;fill=black" /><circle cx="524" cy="200" r="3" style="stroke:black;stroke-width:1;fill=black" /><line x1="524" y1="200" x2="524" y2="220" style="stroke:black;stroke-width:1" /><circle cx="524" cy="220" r="3" style="stroke:black;stroke-width:1;fill=black" /><circle cx="524" cy="240" r="3" style="stroke:black;stroke-width:1;fill=black" /><line x1="524" y1="240" x2="524" y2="260" style="stroke:black;stroke-width:1" /><circle cx="524" cy="260" r="3" style="stroke:black;stroke-width:1;fill=black" /><circle cx="559" cy="140" r="3" style="stroke:black;stroke-width:1;fill=black" /><line x1="559" y1="140" x2="559" y2="160" style="stroke:black;stroke-width:1" /><circle cx="559" cy="160" r="3" style="stroke:black;stroke-width:1;fill=black" /><circle cx="559" cy="180" r="3" style="stroke:black;stroke-width:1;fill=black" /><line x1="559" y1="180" x2="559" y2="200" style="stroke:black;stroke-width:1" /><circle cx="559" cy="200" r="3" style="stroke:black;stroke-width:1;fill=black" />
			<line x1="0" y1="20" x2="594" y2="20" style="stroke:black;stroke-width:1" /><line x1="0" y1="40" x2="594" y2="40" style="stroke:black;stroke-width:1" /><line x1="0" y1="60" x2="594" y2="60" style="stroke:black;stroke-width:1" /><line x1="0" y1="80" x2="594" y2="80" style="stroke:black;stroke-width:1" /><line x1="0" y1="100" x2="594" y2="100" style="stroke:black;stroke-width:1" /><line x1="0" y1="120" x2="594" y2="120" style="stroke:black;stroke-width:1" /><line x1="0" y1="140" x2="594" y2="140" style="stroke:black;stroke-width:1" /><line x1="0" y1="160" x2="594" y2="160" style="stroke:black;stroke-width:1" /><line x1="0" y1="180" x2="594" y2="180" style="stroke:black;stroke-width:1" /><line x1="0" y1="200" x2="594" y2="200" style="stroke:black;stroke-width:1" /><line x1="0" y1="220" x2="594" y2="220" style="stroke:black;stroke-width:1" /><line x1="0" y1="240" x2="594" y2="240" style="stroke:black;stroke-width:1" /><line x1="0" y1="260" x2="594" y2="260" style="stroke:black;stroke-width:1" /><line x1="0" y1="280" x2="594" y2="280" style="stroke:black;stroke-width:1" /><line x1="0" y1="300" x2="594" y2="300" style="stroke:black;stroke-width:1" /><line x1="0" y1="320" x2="594" y2="320" style="stroke:black;stroke-width:1" />
		</svg>
