<?xml version="1.0" encoding="utf-8"?>
		<!DOCTYPE svg>
		<svg width="300px" height="180px" xmlns="http://www.w3.org/2000/svg">
			<rect width="100%" height="100%" fill="white" />
			<circle cx="35" cy="20" r="3" style="stroke:black;stroke-width:1;fill=black" /><line x1="35" y1="20" x2="35" y2="40" style="stroke:black;stroke-width:1" /><circle cx="35" cy="40" r="3" style="stroke:black;stroke-width:1;fill=black" /><circle cx="35" cy="60" r="3" style="stroke:black;stroke-width:1;fill=black" /><line x1="35" y1="60" x2="35" y2="80" style="stroke:black;stroke-width:1" /><circle cx="35" cy="80" r="3" style="stroke:black;stroke-width:1;fill=black" /><circle cx="35" cy="100" r="3" style="stroke:black;stroke-width:1;fill=black" /><line x1="35" y1="100" x2="35" y2="120" style="stroke:black;stroke-width:1" /><circle cx="35" cy="120" r="3" style="stroke:black;stroke-width:1;fill=black" /><circle cx="35" cy="140" r="3" style="stroke:black;stroke-width:1;fill=black" /><line x1="35" y1="140" x2="35" y2="160" style="stroke:black;stroke-width:1" /><circle cx="35" cy="160" r="3" style="stroke:black;stroke-width:1;fill=black" /><circle cx="70" cy="20" r="3" style="stroke:black;stroke-width:1;fill=black" /><line x1="70" y1="20" x2="70" y2="80" style="stroke:black;stroke-width:1" /><circle cx="70" cy="80" r="3" style="stroke:black;stroke-width:1;fill=black" /><circle cx="81" cy="40" r="3" style="stroke:black;stroke-width:1;fill=black" /><line x1="81" y1="40" x2="81" y2="60" style="stroke:black;stroke-width:1" /><circle cx="81" cy="60" r="3" style="stroke:black;stroke-width:1;fill=black" /><circle cx="70" cy="100" r="3" style="stroke:black;stroke-width:1;fill=black" /><line x1="70" y1="100" x2="70" y2="160" style="stroke:black;stroke-width:1" /><circle cx="70" cy="160" r="3" style="stroke:black;stroke-width:1;fill=black" /><circle cx="81" cy="120" r="3" style="stroke:black;stroke-width:1;fill=black" /><line x1="81" y1="120" x2="81" y2="140" style="stroke:black;stroke-width:1" /><circle cx="81" cy="140" r="3" style="stroke:black;stroke-width:1;fill=black" /><circle cx="116" cy="20" r="3" style="stroke:black;stroke-width:1;fill=black" /><line x1="116" y1="20" x2="116" y2="40" style="stroke:black;stroke-width:1" /><circle cx="116" cy="40" r="3" style="stroke:black;stroke-width:1;fill=black" /><circle cx="116" cy="60" r="3" style="stroke:black;stroke-width:1;fill=black" /><line x1="116" y1="60" x2="116" y2="80" style="stroke:black;stroke-width:1" /><circle cx="116" cy="80" r="3" style="stroke:black;stroke-width:1;fill=black" /><circle cx="116" cy="100" r="3" style="stroke:black;stroke-width:1;fill=black" /><line x1="116" y1="100" x2="116" y2="120" style="stroke:black;stroke-width:1" /><circle cx="116" cy="120" r="3" style="stroke:black;stroke-width:1;fill=black" /><circle cx="116" cy="140" r="3" style="stroke:black;stroke-width:1;fill=black" /><line x1="116" y1="140" x2="116" y2="160" style="stroke:black;stroke-width:1" /><circle cx="116" cy="160" r="3" style="stroke:black;stroke-width:1;fill=black" /><circle cx="151" cy="20" r="3" style="stroke:black;stroke-width:1;fill=black" /><line x1="151" y1="20" x2="151" y2="160" style="stroke:black;stroke-width:1" /><circle cx="151" cy="160" r="3" style="stroke:black;stroke-width:1;fill=black" /><circle cx="162" cy="40" r="3" style="stroke:black;stroke-width:1;fill=black" /><line x1="162" y1="40" x2="162" y2="140" style="stroke:black;stroke-width:1" /><circle cx="162" cy="140" r="3" style="stroke:black;stroke-width:1;fill=black" /><circle cx="173" cy="60" r="3" style="stroke:black;stroke-width:1;fill=black" /><line x1="173" y1="60" x2="173" y2="120" style="stroke:black;stroke-width:1" /><circle cx="173" cy="120" r="3" style="stroke:black;stroke-width:1;fill=black" /><circle cx="184" cy="80" r="3" style="stroke:black;stroke-width:1;fill=black" /><line x1="184" y1="80" x2="184" y2="100" style="stroke:black;stroke-width:1" /><circle cx="184" cy="100" r="3" style="stroke:black;stroke-width:1;fill=black" /><circle cx="219" cy="20" r="3" style="stroke:black;stroke-width:1;fill=black" /><line x1="219" y1="20" x2="219" y2="60" style="stroke:black;stroke-width:1" /><circle cx="219" cy="60" r="3" style="stroke:black;stroke-width:1;fill=black" /><circle cx="230" cy="40" r="3" style="stroke:black;stroke-width:1;fill=black" /><line x1="230" y1="40" x2="230" y2="80" style="stroke:black;stroke-width:1" /><circle cx="230" cy="80" r="3" style="stroke:black;stroke-width:1;fill=black" /><circle cx="219" cy="100" r="3" style="stroke:black;stroke-width:1;fill=black" /><line x1="219" y1="100" x2="219" y2="140" style="stroke:black;stroke-width:1" /><circle cx="219" cy="140" r="3" style="stroke:black;stroke-width:1;fill=black" /><circle cx="230" cy="120" r="3" style="stroke:black;stroke-width:1;fill=black" /><line x1="230" y1="120" x2="230" y2="160" style="stroke:black;stroke-width:1" /><circle cx="230" cy="160" r="3" style="stroke:black;stroke-width:1;fill=black" /><circle cx="265" cy="20" r="3" style="stroke:black;stroke-width:1;fill=black" /><line x1="265" y1="20" x2="265" y2="40" style="stroke:black;stroke-width:1" /><circle cx="265" cy="40" r="3" style="stroke:black;stroke-width:1;fill=black" /><circle cx="265" cy="60" r="3" style="stroke:black;stroke-width:1;fill=black" /><line x1="265" y1="60" x2="265" y2="80" style="stroke:black;stroke-width:1" /><circle cx="265" cy="80" r="3" style="stroke:black;stroke-width:1;fill=black" /><circle cx="265" cy="100" r="3" style="stroke:black;stroke-width:1;fill=black" /><line x1="265" y1="100" x2="265" y2="120" style="stroke:black;stroke-width:1" /><circle cx="265" cy="120" r="3" style="stroke:black;stroke-width:1;fill=black" /><circle cx="265" cy="140" r="3" style="stroke:black;stroke-width:1;fill=black" /><line x1="265" y1="140" x2="265" y2="160" style="stroke:black;stroke-width:1" /><circle cx="265" cy="160" r="3" style="stroke:black;stroke-width:1;fill=black" />
			<line x1="0" y1="20" x2="300" y2="20" style="stroke:black;stroke-width:1" /><line x1="0" y1="40" x2="300" y2="40" style="stroke:black;stroke-width:1" /><line x1="0" y1="60" x2="300" y2="60" style="stroke:black;stroke-width:1" /><line x1="0" y1="80" x2="300" y2="80" style="stroke:black;stroke-width:1" /><line x1="0" y1="100" x2="300" y2="100" style="stroke:black;stroke-width:1" /><line x1="0" y1="120" x2="300" y2="120" style="stroke:black;stroke-width:1" /><line x1="0" y1="140" x2="300" y2="140" style="stroke:black;stroke-width:1" /><line x1="0" y1="160" x2="300" y2="160" style="stroke:black;stroke-width:1" />
		</svg>
